<?xml version="1.0" encoding="utf-8" standalone="no"?>
<!DOCTYPE svg PUBLIC "-//W3C//DTD SVG 1.1//EN"
  "http://www.w3.org/Graphics/SVG/1.1/DTD/svg11.dtd">
<svg xmlns:xlink="http://www.w3.org/1999/xlink" width="432pt" height="432pt" viewBox="0 0 432 432" xmlns="http://www.w3.org/2000/svg" version="1.1">
 <metadata>
  <rdf:RDF xmlns:dc="http://purl.org/dc/elements/1.1/" xmlns:cc="http://creativecommons.org/ns#" xmlns:rdf="http://www.w3.org/1999/02/22-rdf-syntax-ns#">
   <cc:Work>
    <dc:type rdf:resource="http://purl.org/dc/dcmitype/StillImage"/>
    <dc:date>2023-04-28T00:49:24.212362</dc:date>
    <dc:format>image/svg+xml</dc:format>
    <dc:creator>
     <cc:Agent>
      <dc:title>Matplotlib v3.7.1, https://matplotlib.org/</dc:title>
     </cc:Agent>
    </dc:creator>
   </cc:Work>
  </rdf:RDF>
 </metadata>
 <defs>
  <style type="text/css">*{stroke-linejoin: round; stroke-linecap: butt}</style>
 </defs>
 <g id="figure_1">
  <g id="patch_1">
   <path d="M 0 432 
L 432 432 
L 432 0 
L 0 0 
z
" style="fill: #ffffff"/>
  </g>
  <g id="axes_1">
   <g id="patch_2">
    <path d="M 54 378 
L 388.8 378 
L 388.8 51.84 
L 54 51.84 
z
" style="fill: #eaeaf2"/>
   </g>
   <g id="matplotlib.axis_1">
    <g id="xtick_1">
     <g id="line2d_1">
      <path d="M 79.753846 378 
L 79.753846 51.84 
" clip-path="url(#p5f5cd25264)" style="fill: none; stroke: #ffffff; stroke-linecap: round"/>
     </g>
     <g id="text_1">
      <!-- −0.2 -->
      <g style="fill: #262626" transform="translate(65.935409 395.020938) scale(0.14 -0.14)">
       <defs>
        <path id="ArialMT-2212" d="M 3381 1997 
L 356 1997 
L 356 2522 
L 3381 2522 
L 3381 1997 
z
" transform="scale(0.015625)"/>
        <path id="ArialMT-30" d="M 266 2259 
Q 266 3072 433 3567 
Q 600 4063 929 4331 
Q 1259 4600 1759 4600 
Q 2128 4600 2406 4451 
Q 2684 4303 2865 4023 
Q 3047 3744 3150 3342 
Q 3253 2941 3253 2259 
Q 3253 1453 3087 958 
Q 2922 463 2592 192 
Q 2263 -78 1759 -78 
Q 1097 -78 719 397 
Q 266 969 266 2259 
z
M 844 2259 
Q 844 1131 1108 757 
Q 1372 384 1759 384 
Q 2147 384 2411 759 
Q 2675 1134 2675 2259 
Q 2675 3391 2411 3762 
Q 2147 4134 1753 4134 
Q 1366 4134 1134 3806 
Q 844 3388 844 2259 
z
" transform="scale(0.015625)"/>
        <path id="ArialMT-2e" d="M 581 0 
L 581 641 
L 1222 641 
L 1222 0 
L 581 0 
z
" transform="scale(0.015625)"/>
        <path id="ArialMT-32" d="M 3222 541 
L 3222 0 
L 194 0 
Q 188 203 259 391 
Q 375 700 629 1000 
Q 884 1300 1366 1694 
Q 2113 2306 2375 2664 
Q 2638 3022 2638 3341 
Q 2638 3675 2398 3904 
Q 2159 4134 1775 4134 
Q 1369 4134 1125 3890 
Q 881 3647 878 3216 
L 300 3275 
Q 359 3922 746 4261 
Q 1134 4600 1788 4600 
Q 2447 4600 2831 4234 
Q 3216 3869 3216 3328 
Q 3216 3053 3103 2787 
Q 2991 2522 2730 2228 
Q 2469 1934 1863 1422 
Q 1356 997 1212 845 
Q 1069 694 975 541 
L 3222 541 
z
" transform="scale(0.015625)"/>
       </defs>
       <use xlink:href="#ArialMT-2212"/>
       <use xlink:href="#ArialMT-30" x="58.398438"/>
       <use xlink:href="#ArialMT-2e" x="114.013672"/>
       <use xlink:href="#ArialMT-32" x="141.796875"/>
      </g>
     </g>
    </g>
    <g id="xtick_2">
     <g id="line2d_2">
      <path d="M 131.261538 378 
L 131.261538 51.84 
" clip-path="url(#p5f5cd25264)" style="fill: none; stroke: #ffffff; stroke-linecap: round"/>
     </g>
     <g id="text_2">
      <!-- 0.0 -->
      <g style="fill: #262626" transform="translate(121.531538 395.020938) scale(0.14 -0.14)">
       <use xlink:href="#ArialMT-30"/>
       <use xlink:href="#ArialMT-2e" x="55.615234"/>
       <use xlink:href="#ArialMT-30" x="83.398438"/>
      </g>
     </g>
    </g>
    <g id="xtick_3">
     <g id="line2d_3">
      <path d="M 182.769231 378 
L 182.769231 51.84 
" clip-path="url(#p5f5cd25264)" style="fill: none; stroke: #ffffff; stroke-linecap: round"/>
     </g>
     <g id="text_3">
      <!-- 0.2 -->
      <g style="fill: #262626" transform="translate(173.039231 395.020938) scale(0.14 -0.14)">
       <use xlink:href="#ArialMT-30"/>
       <use xlink:href="#ArialMT-2e" x="55.615234"/>
       <use xlink:href="#ArialMT-32" x="83.398438"/>
      </g>
     </g>
    </g>
    <g id="xtick_4">
     <g id="line2d_4">
      <path d="M 234.276923 378 
L 234.276923 51.84 
" clip-path="url(#p5f5cd25264)" style="fill: none; stroke: #ffffff; stroke-linecap: round"/>
     </g>
     <g id="text_4">
      <!-- 0.4 -->
      <g style="fill: #262626" transform="translate(224.546923 395.020938) scale(0.14 -0.14)">
       <defs>
        <path id="ArialMT-34" d="M 2069 0 
L 2069 1097 
L 81 1097 
L 81 1613 
L 2172 4581 
L 2631 4581 
L 2631 1613 
L 3250 1613 
L 3250 1097 
L 2631 1097 
L 2631 0 
L 2069 0 
z
M 2069 1613 
L 2069 3678 
L 634 1613 
L 2069 1613 
z
" transform="scale(0.015625)"/>
       </defs>
       <use xlink:href="#ArialMT-30"/>
       <use xlink:href="#ArialMT-2e" x="55.615234"/>
       <use xlink:href="#ArialMT-34" x="83.398438"/>
      </g>
     </g>
    </g>
    <g id="xtick_5">
     <g id="line2d_5">
      <path d="M 285.784615 378 
L 285.784615 51.84 
" clip-path="url(#p5f5cd25264)" style="fill: none; stroke: #ffffff; stroke-linecap: round"/>
     </g>
     <g id="text_5">
      <!-- 0.6 -->
      <g style="fill: #262626" transform="translate(276.054615 395.020938) scale(0.14 -0.14)">
       <defs>
        <path id="ArialMT-36" d="M 3184 3459 
L 2625 3416 
Q 2550 3747 2413 3897 
Q 2184 4138 1850 4138 
Q 1581 4138 1378 3988 
Q 1113 3794 959 3422 
Q 806 3050 800 2363 
Q 1003 2672 1297 2822 
Q 1591 2972 1913 2972 
Q 2475 2972 2870 2558 
Q 3266 2144 3266 1488 
Q 3266 1056 3080 686 
Q 2894 316 2569 119 
Q 2244 -78 1831 -78 
Q 1128 -78 684 439 
Q 241 956 241 2144 
Q 241 3472 731 4075 
Q 1159 4600 1884 4600 
Q 2425 4600 2770 4297 
Q 3116 3994 3184 3459 
z
M 888 1484 
Q 888 1194 1011 928 
Q 1134 663 1356 523 
Q 1578 384 1822 384 
Q 2178 384 2434 671 
Q 2691 959 2691 1453 
Q 2691 1928 2437 2201 
Q 2184 2475 1800 2475 
Q 1419 2475 1153 2201 
Q 888 1928 888 1484 
z
" transform="scale(0.015625)"/>
       </defs>
       <use xlink:href="#ArialMT-30"/>
       <use xlink:href="#ArialMT-2e" x="55.615234"/>
       <use xlink:href="#ArialMT-36" x="83.398438"/>
      </g>
     </g>
    </g>
    <g id="xtick_6">
     <g id="line2d_6">
      <path d="M 337.292308 378 
L 337.292308 51.84 
" clip-path="url(#p5f5cd25264)" style="fill: none; stroke: #ffffff; stroke-linecap: round"/>
     </g>
     <g id="text_6">
      <!-- 0.8 -->
      <g style="fill: #262626" transform="translate(327.562308 395.020938) scale(0.14 -0.14)">
       <defs>
        <path id="ArialMT-38" d="M 1131 2484 
Q 781 2613 612 2850 
Q 444 3088 444 3419 
Q 444 3919 803 4259 
Q 1163 4600 1759 4600 
Q 2359 4600 2725 4251 
Q 3091 3903 3091 3403 
Q 3091 3084 2923 2848 
Q 2756 2613 2416 2484 
Q 2838 2347 3058 2040 
Q 3278 1734 3278 1309 
Q 3278 722 2862 322 
Q 2447 -78 1769 -78 
Q 1091 -78 675 323 
Q 259 725 259 1325 
Q 259 1772 486 2073 
Q 713 2375 1131 2484 
z
M 1019 3438 
Q 1019 3113 1228 2906 
Q 1438 2700 1772 2700 
Q 2097 2700 2305 2904 
Q 2513 3109 2513 3406 
Q 2513 3716 2298 3927 
Q 2084 4138 1766 4138 
Q 1444 4138 1231 3931 
Q 1019 3725 1019 3438 
z
M 838 1322 
Q 838 1081 952 856 
Q 1066 631 1291 507 
Q 1516 384 1775 384 
Q 2178 384 2440 643 
Q 2703 903 2703 1303 
Q 2703 1709 2433 1975 
Q 2163 2241 1756 2241 
Q 1359 2241 1098 1978 
Q 838 1716 838 1322 
z
" transform="scale(0.015625)"/>
       </defs>
       <use xlink:href="#ArialMT-30"/>
       <use xlink:href="#ArialMT-2e" x="55.615234"/>
       <use xlink:href="#ArialMT-38" x="83.398438"/>
      </g>
     </g>
    </g>
    <g id="xtick_7">
     <g id="line2d_7">
      <path d="M 388.8 378 
L 388.8 51.84 
" clip-path="url(#p5f5cd25264)" style="fill: none; stroke: #ffffff; stroke-linecap: round"/>
     </g>
     <g id="text_7">
      <!-- 1.0 -->
      <g style="fill: #262626" transform="translate(379.07 395.020938) scale(0.14 -0.14)">
       <defs>
        <path id="ArialMT-31" d="M 2384 0 
L 1822 0 
L 1822 3584 
Q 1619 3391 1289 3197 
Q 959 3003 697 2906 
L 697 3450 
Q 1169 3672 1522 3987 
Q 1875 4303 2022 4600 
L 2384 4600 
L 2384 0 
z
" transform="scale(0.015625)"/>
       </defs>
       <use xlink:href="#ArialMT-31"/>
       <use xlink:href="#ArialMT-2e" x="55.615234"/>
       <use xlink:href="#ArialMT-30" x="83.398438"/>
      </g>
     </g>
    </g>
    <g id="text_8">
     <!-- Human raters' Performance -->
     <g style="fill: #262626" transform="translate(116.79375 413.255938) scale(0.16 -0.16)">
      <defs>
       <path id="Arial-BoldMT-48" d="M 469 0 
L 469 4581 
L 1394 4581 
L 1394 2778 
L 3206 2778 
L 3206 4581 
L 4131 4581 
L 4131 0 
L 3206 0 
L 3206 2003 
L 1394 2003 
L 1394 0 
L 469 0 
z
" transform="scale(0.015625)"/>
       <path id="Arial-BoldMT-75" d="M 2644 0 
L 2644 497 
Q 2463 231 2167 78 
Q 1872 -75 1544 -75 
Q 1209 -75 943 72 
Q 678 219 559 484 
Q 441 750 441 1219 
L 441 3319 
L 1319 3319 
L 1319 1794 
Q 1319 1094 1367 936 
Q 1416 778 1544 686 
Q 1672 594 1869 594 
Q 2094 594 2272 717 
Q 2450 841 2515 1023 
Q 2581 1206 2581 1919 
L 2581 3319 
L 3459 3319 
L 3459 0 
L 2644 0 
z
" transform="scale(0.015625)"/>
       <path id="Arial-BoldMT-6d" d="M 394 3319 
L 1203 3319 
L 1203 2866 
Q 1638 3394 2238 3394 
Q 2556 3394 2790 3262 
Q 3025 3131 3175 2866 
Q 3394 3131 3647 3262 
Q 3900 3394 4188 3394 
Q 4553 3394 4806 3245 
Q 5059 3097 5184 2809 
Q 5275 2597 5275 2122 
L 5275 0 
L 4397 0 
L 4397 1897 
Q 4397 2391 4306 2534 
Q 4184 2722 3931 2722 
Q 3747 2722 3584 2609 
Q 3422 2497 3350 2280 
Q 3278 2063 3278 1594 
L 3278 0 
L 2400 0 
L 2400 1819 
Q 2400 2303 2353 2443 
Q 2306 2584 2207 2653 
Q 2109 2722 1941 2722 
Q 1738 2722 1575 2612 
Q 1413 2503 1342 2297 
Q 1272 2091 1272 1613 
L 1272 0 
L 394 0 
L 394 3319 
z
" transform="scale(0.015625)"/>
       <path id="Arial-BoldMT-61" d="M 1116 2306 
L 319 2450 
Q 453 2931 781 3162 
Q 1109 3394 1756 3394 
Q 2344 3394 2631 3255 
Q 2919 3116 3036 2902 
Q 3153 2688 3153 2116 
L 3144 1091 
Q 3144 653 3186 445 
Q 3228 238 3344 0 
L 2475 0 
Q 2441 88 2391 259 
Q 2369 338 2359 363 
Q 2134 144 1878 34 
Q 1622 -75 1331 -75 
Q 819 -75 523 203 
Q 228 481 228 906 
Q 228 1188 362 1408 
Q 497 1628 739 1745 
Q 981 1863 1438 1950 
Q 2053 2066 2291 2166 
L 2291 2253 
Q 2291 2506 2166 2614 
Q 2041 2722 1694 2722 
Q 1459 2722 1328 2630 
Q 1197 2538 1116 2306 
z
M 2291 1594 
Q 2122 1538 1756 1459 
Q 1391 1381 1278 1306 
Q 1106 1184 1106 997 
Q 1106 813 1243 678 
Q 1381 544 1594 544 
Q 1831 544 2047 700 
Q 2206 819 2256 991 
Q 2291 1103 2291 1419 
L 2291 1594 
z
" transform="scale(0.015625)"/>
       <path id="Arial-BoldMT-6e" d="M 3478 0 
L 2600 0 
L 2600 1694 
Q 2600 2231 2544 2389 
Q 2488 2547 2361 2634 
Q 2234 2722 2056 2722 
Q 1828 2722 1647 2597 
Q 1466 2472 1398 2265 
Q 1331 2059 1331 1503 
L 1331 0 
L 453 0 
L 453 3319 
L 1269 3319 
L 1269 2831 
Q 1703 3394 2363 3394 
Q 2653 3394 2893 3289 
Q 3134 3184 3257 3021 
Q 3381 2859 3429 2653 
Q 3478 2447 3478 2063 
L 3478 0 
z
" transform="scale(0.015625)"/>
       <path id="Arial-BoldMT-20" transform="scale(0.015625)"/>
       <path id="Arial-BoldMT-72" d="M 1300 0 
L 422 0 
L 422 3319 
L 1238 3319 
L 1238 2847 
Q 1447 3181 1614 3287 
Q 1781 3394 1994 3394 
Q 2294 3394 2572 3228 
L 2300 2463 
Q 2078 2606 1888 2606 
Q 1703 2606 1575 2504 
Q 1447 2403 1373 2137 
Q 1300 1872 1300 1025 
L 1300 0 
z
" transform="scale(0.015625)"/>
       <path id="Arial-BoldMT-74" d="M 1981 3319 
L 1981 2619 
L 1381 2619 
L 1381 1281 
Q 1381 875 1398 808 
Q 1416 741 1477 697 
Q 1538 653 1625 653 
Q 1747 653 1978 738 
L 2053 56 
Q 1747 -75 1359 -75 
Q 1122 -75 931 4 
Q 741 84 652 211 
Q 563 338 528 553 
Q 500 706 500 1172 
L 500 2619 
L 97 2619 
L 97 3319 
L 500 3319 
L 500 3978 
L 1381 4491 
L 1381 3319 
L 1981 3319 
z
" transform="scale(0.015625)"/>
       <path id="Arial-BoldMT-65" d="M 2381 1056 
L 3256 909 
Q 3088 428 2723 176 
Q 2359 -75 1813 -75 
Q 947 -75 531 491 
Q 203 944 203 1634 
Q 203 2459 634 2926 
Q 1066 3394 1725 3394 
Q 2466 3394 2894 2905 
Q 3322 2416 3303 1406 
L 1103 1406 
Q 1113 1016 1316 798 
Q 1519 581 1822 581 
Q 2028 581 2168 693 
Q 2309 806 2381 1056 
z
M 2431 1944 
Q 2422 2325 2234 2523 
Q 2047 2722 1778 2722 
Q 1491 2722 1303 2513 
Q 1116 2303 1119 1944 
L 2431 1944 
z
" transform="scale(0.015625)"/>
       <path id="Arial-BoldMT-73" d="M 150 947 
L 1031 1081 
Q 1088 825 1259 692 
Q 1431 559 1741 559 
Q 2081 559 2253 684 
Q 2369 772 2369 919 
Q 2369 1019 2306 1084 
Q 2241 1147 2013 1200 
Q 950 1434 666 1628 
Q 272 1897 272 2375 
Q 272 2806 612 3100 
Q 953 3394 1669 3394 
Q 2350 3394 2681 3172 
Q 3013 2950 3138 2516 
L 2309 2363 
Q 2256 2556 2107 2659 
Q 1959 2763 1684 2763 
Q 1338 2763 1188 2666 
Q 1088 2597 1088 2488 
Q 1088 2394 1175 2328 
Q 1294 2241 1995 2081 
Q 2697 1922 2975 1691 
Q 3250 1456 3250 1038 
Q 3250 581 2869 253 
Q 2488 -75 1741 -75 
Q 1063 -75 667 200 
Q 272 475 150 947 
z
" transform="scale(0.015625)"/>
       <path id="Arial-BoldMT-27" d="M 453 2953 
L 288 3806 
L 288 4581 
L 1244 4581 
L 1244 3806 
L 1100 2953 
L 453 2953 
z
" transform="scale(0.015625)"/>
       <path id="Arial-BoldMT-50" d="M 466 0 
L 466 4581 
L 1950 4581 
Q 2794 4581 3050 4513 
Q 3444 4409 3709 4064 
Q 3975 3719 3975 3172 
Q 3975 2750 3822 2462 
Q 3669 2175 3433 2011 
Q 3197 1847 2953 1794 
Q 2622 1728 1994 1728 
L 1391 1728 
L 1391 0 
L 466 0 
z
M 1391 3806 
L 1391 2506 
L 1897 2506 
Q 2444 2506 2628 2578 
Q 2813 2650 2917 2803 
Q 3022 2956 3022 3159 
Q 3022 3409 2875 3571 
Q 2728 3734 2503 3775 
Q 2338 3806 1838 3806 
L 1391 3806 
z
" transform="scale(0.015625)"/>
       <path id="Arial-BoldMT-66" d="M 75 3319 
L 563 3319 
L 563 3569 
Q 563 3988 652 4194 
Q 741 4400 980 4529 
Q 1219 4659 1584 4659 
Q 1959 4659 2319 4547 
L 2200 3934 
Q 1991 3984 1797 3984 
Q 1606 3984 1523 3895 
Q 1441 3806 1441 3553 
L 1441 3319 
L 2097 3319 
L 2097 2628 
L 1441 2628 
L 1441 0 
L 563 0 
L 563 2628 
L 75 2628 
L 75 3319 
z
" transform="scale(0.015625)"/>
       <path id="Arial-BoldMT-6f" d="M 256 1706 
Q 256 2144 472 2553 
Q 688 2963 1083 3178 
Q 1478 3394 1966 3394 
Q 2719 3394 3200 2905 
Q 3681 2416 3681 1669 
Q 3681 916 3195 420 
Q 2709 -75 1972 -75 
Q 1516 -75 1102 131 
Q 688 338 472 736 
Q 256 1134 256 1706 
z
M 1156 1659 
Q 1156 1166 1390 903 
Q 1625 641 1969 641 
Q 2313 641 2545 903 
Q 2778 1166 2778 1666 
Q 2778 2153 2545 2415 
Q 2313 2678 1969 2678 
Q 1625 2678 1390 2415 
Q 1156 2153 1156 1659 
z
" transform="scale(0.015625)"/>
       <path id="Arial-BoldMT-63" d="M 3353 2338 
L 2488 2181 
Q 2444 2441 2289 2572 
Q 2134 2703 1888 2703 
Q 1559 2703 1364 2476 
Q 1169 2250 1169 1719 
Q 1169 1128 1367 884 
Q 1566 641 1900 641 
Q 2150 641 2309 783 
Q 2469 925 2534 1272 
L 3397 1125 
Q 3263 531 2881 228 
Q 2500 -75 1859 -75 
Q 1131 -75 698 384 
Q 266 844 266 1656 
Q 266 2478 700 2936 
Q 1134 3394 1875 3394 
Q 2481 3394 2839 3133 
Q 3197 2872 3353 2338 
z
" transform="scale(0.015625)"/>
      </defs>
      <use xlink:href="#Arial-BoldMT-48"/>
      <use xlink:href="#Arial-BoldMT-75" x="72.216797"/>
      <use xlink:href="#Arial-BoldMT-6d" x="133.300781"/>
      <use xlink:href="#Arial-BoldMT-61" x="222.216797"/>
      <use xlink:href="#Arial-BoldMT-6e" x="277.832031"/>
      <use xlink:href="#Arial-BoldMT-20" x="338.916016"/>
      <use xlink:href="#Arial-BoldMT-72" x="366.699219"/>
      <use xlink:href="#Arial-BoldMT-61" x="405.615234"/>
      <use xlink:href="#Arial-BoldMT-74" x="461.230469"/>
      <use xlink:href="#Arial-BoldMT-65" x="494.53125"/>
      <use xlink:href="#Arial-BoldMT-72" x="550.146484"/>
      <use xlink:href="#Arial-BoldMT-73" x="589.0625"/>
      <use xlink:href="#Arial-BoldMT-27" x="644.677734"/>
      <use xlink:href="#Arial-BoldMT-20" x="668.457031"/>
      <use xlink:href="#Arial-BoldMT-50" x="696.240234"/>
      <use xlink:href="#Arial-BoldMT-65" x="762.939453"/>
      <use xlink:href="#Arial-BoldMT-72" x="818.554688"/>
      <use xlink:href="#Arial-BoldMT-66" x="857.470703"/>
      <use xlink:href="#Arial-BoldMT-6f" x="890.771484"/>
      <use xlink:href="#Arial-BoldMT-72" x="951.855469"/>
      <use xlink:href="#Arial-BoldMT-6d" x="990.771484"/>
      <use xlink:href="#Arial-BoldMT-61" x="1079.6875"/>
      <use xlink:href="#Arial-BoldMT-6e" x="1135.302734"/>
      <use xlink:href="#Arial-BoldMT-63" x="1196.386719"/>
      <use xlink:href="#Arial-BoldMT-65" x="1252.001953"/>
     </g>
    </g>
   </g>
   <g id="matplotlib.axis_2">
    <g id="ytick_1">
     <g id="line2d_8">
      <path d="M 54 352.910769 
L 388.8 352.910769 
" clip-path="url(#p5f5cd25264)" style="fill: none; stroke: #ffffff; stroke-linecap: round"/>
     </g>
     <g id="text_9">
      <!-- −0.2 -->
      <g style="fill: #262626" transform="translate(19.363125 357.921238) scale(0.14 -0.14)">
       <use xlink:href="#ArialMT-2212"/>
       <use xlink:href="#ArialMT-30" x="58.398438"/>
       <use xlink:href="#ArialMT-2e" x="114.013672"/>
       <use xlink:href="#ArialMT-32" x="141.796875"/>
      </g>
     </g>
    </g>
    <g id="ytick_2">
     <g id="line2d_9">
      <path d="M 54 302.732308 
L 388.8 302.732308 
" clip-path="url(#p5f5cd25264)" style="fill: none; stroke: #ffffff; stroke-linecap: round"/>
     </g>
     <g id="text_10">
      <!-- 0.0 -->
      <g style="fill: #262626" transform="translate(27.54 307.742776) scale(0.14 -0.14)">
       <use xlink:href="#ArialMT-30"/>
       <use xlink:href="#ArialMT-2e" x="55.615234"/>
       <use xlink:href="#ArialMT-30" x="83.398438"/>
      </g>
     </g>
    </g>
    <g id="ytick_3">
     <g id="line2d_10">
      <path d="M 54 252.553846 
L 388.8 252.553846 
" clip-path="url(#p5f5cd25264)" style="fill: none; stroke: #ffffff; stroke-linecap: round"/>
     </g>
     <g id="text_11">
      <!-- 0.2 -->
      <g style="fill: #262626" transform="translate(27.54 257.564315) scale(0.14 -0.14)">
       <use xlink:href="#ArialMT-30"/>
       <use xlink:href="#ArialMT-2e" x="55.615234"/>
       <use xlink:href="#ArialMT-32" x="83.398438"/>
      </g>
     </g>
    </g>
    <g id="ytick_4">
     <g id="line2d_11">
      <path d="M 54 202.375385 
L 388.8 202.375385 
" clip-path="url(#p5f5cd25264)" style="fill: none; stroke: #ffffff; stroke-linecap: round"/>
     </g>
     <g id="text_12">
      <!-- 0.4 -->
      <g style="fill: #262626" transform="translate(27.54 207.385853) scale(0.14 -0.14)">
       <use xlink:href="#ArialMT-30"/>
       <use xlink:href="#ArialMT-2e" x="55.615234"/>
       <use xlink:href="#ArialMT-34" x="83.398438"/>
      </g>
     </g>
    </g>
    <g id="ytick_5">
     <g id="line2d_12">
      <path d="M 54 152.196923 
L 388.8 152.196923 
" clip-path="url(#p5f5cd25264)" style="fill: none; stroke: #ffffff; stroke-linecap: round"/>
     </g>
     <g id="text_13">
      <!-- 0.6 -->
      <g style="fill: #262626" transform="translate(27.54 157.207392) scale(0.14 -0.14)">
       <use xlink:href="#ArialMT-30"/>
       <use xlink:href="#ArialMT-2e" x="55.615234"/>
       <use xlink:href="#ArialMT-36" x="83.398438"/>
      </g>
     </g>
    </g>
    <g id="ytick_6">
     <g id="line2d_13">
      <path d="M 54 102.018462 
L 388.8 102.018462 
" clip-path="url(#p5f5cd25264)" style="fill: none; stroke: #ffffff; stroke-linecap: round"/>
     </g>
     <g id="text_14">
      <!-- 0.8 -->
      <g style="fill: #262626" transform="translate(27.54 107.02893) scale(0.14 -0.14)">
       <use xlink:href="#ArialMT-30"/>
       <use xlink:href="#ArialMT-2e" x="55.615234"/>
       <use xlink:href="#ArialMT-38" x="83.398438"/>
      </g>
     </g>
    </g>
    <g id="ytick_7">
     <g id="line2d_14">
      <path d="M 54 51.84 
L 388.8 51.84 
" clip-path="url(#p5f5cd25264)" style="fill: none; stroke: #ffffff; stroke-linecap: round"/>
     </g>
     <g id="text_15">
      <!-- 1.0 -->
      <g style="fill: #262626" transform="translate(27.54 56.850469) scale(0.14 -0.14)">
       <use xlink:href="#ArialMT-31"/>
       <use xlink:href="#ArialMT-2e" x="55.615234"/>
       <use xlink:href="#ArialMT-30" x="83.398438"/>
      </g>
     </g>
    </g>
    <g id="text_16">
     <!-- Model's Performance -->
     <g style="fill: #262626" transform="translate(12.205625 295.51) rotate(-90) scale(0.16 -0.16)">
      <defs>
       <path id="Arial-BoldMT-4d" d="M 453 0 
L 453 4581 
L 1838 4581 
L 2669 1456 
L 3491 4581 
L 4878 4581 
L 4878 0 
L 4019 0 
L 4019 3606 
L 3109 0 
L 2219 0 
L 1313 3606 
L 1313 0 
L 453 0 
z
" transform="scale(0.015625)"/>
       <path id="Arial-BoldMT-64" d="M 3503 0 
L 2688 0 
L 2688 488 
Q 2484 203 2207 64 
Q 1931 -75 1650 -75 
Q 1078 -75 670 386 
Q 263 847 263 1672 
Q 263 2516 659 2955 
Q 1056 3394 1663 3394 
Q 2219 3394 2625 2931 
L 2625 4581 
L 3503 4581 
L 3503 0 
z
M 1159 1731 
Q 1159 1200 1306 963 
Q 1519 619 1900 619 
Q 2203 619 2415 876 
Q 2628 1134 2628 1647 
Q 2628 2219 2422 2470 
Q 2216 2722 1894 2722 
Q 1581 2722 1370 2473 
Q 1159 2225 1159 1731 
z
" transform="scale(0.015625)"/>
       <path id="Arial-BoldMT-6c" d="M 459 0 
L 459 4581 
L 1338 4581 
L 1338 0 
L 459 0 
z
" transform="scale(0.015625)"/>
      </defs>
      <use xlink:href="#Arial-BoldMT-4d"/>
      <use xlink:href="#Arial-BoldMT-6f" x="83.300781"/>
      <use xlink:href="#Arial-BoldMT-64" x="144.384766"/>
      <use xlink:href="#Arial-BoldMT-65" x="205.46875"/>
      <use xlink:href="#Arial-BoldMT-6c" x="261.083984"/>
      <use xlink:href="#Arial-BoldMT-27" x="288.867188"/>
      <use xlink:href="#Arial-BoldMT-73" x="312.646484"/>
      <use xlink:href="#Arial-BoldMT-20" x="368.261719"/>
      <use xlink:href="#Arial-BoldMT-50" x="396.044922"/>
      <use xlink:href="#Arial-BoldMT-65" x="462.744141"/>
      <use xlink:href="#Arial-BoldMT-72" x="518.359375"/>
      <use xlink:href="#Arial-BoldMT-66" x="557.275391"/>
      <use xlink:href="#Arial-BoldMT-6f" x="590.576172"/>
      <use xlink:href="#Arial-BoldMT-72" x="651.660156"/>
      <use xlink:href="#Arial-BoldMT-6d" x="690.576172"/>
      <use xlink:href="#Arial-BoldMT-61" x="779.492188"/>
      <use xlink:href="#Arial-BoldMT-6e" x="835.107422"/>
      <use xlink:href="#Arial-BoldMT-63" x="896.191406"/>
      <use xlink:href="#Arial-BoldMT-65" x="951.806641"/>
     </g>
    </g>
   </g>
   <g id="PathCollection_1">
    <defs>
     <path id="C0_0_7bd86e9c7c" d="M 0 4.472136 
C 1.186024 4.472136 2.323632 4.000923 3.162278 3.162278 
C 4.000923 2.323632 4.472136 1.186024 4.472136 -0 
C 4.472136 -1.186024 4.000923 -2.323632 3.162278 -3.162278 
C 2.323632 -4.000923 1.186024 -4.472136 0 -4.472136 
C -1.186024 -4.472136 -2.323632 -4.000923 -3.162278 -3.162278 
C -4.000923 -2.323632 -4.472136 -1.186024 -4.472136 0 
C -4.472136 1.186024 -4.000923 2.323632 -3.162278 3.162278 
C -2.323632 4.000923 -1.186024 4.472136 0 4.472136 
z
"/>
    </defs>
    <g clip-path="url(#p5f5cd25264)">
     <use xlink:href="#C0_0_7bd86e9c7c" x="290.778541" y="98.832274" style="fill: #ff0000; stroke: #ffffff; stroke-width: 0.715542"/>
    </g>
    <g clip-path="url(#p5f5cd25264)">
     <use xlink:href="#C0_0_7bd86e9c7c" x="187.028425" y="276.22697" style="fill: #ff0000; stroke: #ffffff; stroke-width: 0.715542"/>
    </g>
    <g clip-path="url(#p5f5cd25264)">
     <use xlink:href="#C0_0_7bd86e9c7c" x="260.999213" y="187.954315" style="fill: #ff0000; stroke: #ffffff; stroke-width: 0.715542"/>
    </g>
    <g clip-path="url(#p5f5cd25264)">
     <use xlink:href="#C0_0_7bd86e9c7c" x="206.336847" y="308.517169" style="fill: #ff0000; stroke: #ffffff; stroke-width: 0.715542"/>
    </g>
    <g clip-path="url(#p5f5cd25264)">
     <use xlink:href="#C0_0_7bd86e9c7c" x="231.198357" y="264.075095" style="fill: #ff0000; stroke: #ffffff; stroke-width: 0.715542"/>
    </g>
    <g clip-path="url(#p5f5cd25264)">
     <use xlink:href="#C0_0_7bd86e9c7c" x="215.655254" y="282.567139" style="fill: #ff0000; stroke: #ffffff; stroke-width: 0.715542"/>
    </g>
    <g clip-path="url(#p5f5cd25264)">
     <use xlink:href="#C0_0_7bd86e9c7c" x="253.446112" y="171.848808" style="fill: #ff0000; stroke: #ffffff; stroke-width: 0.715542"/>
    </g>
    <g clip-path="url(#p5f5cd25264)">
     <use xlink:href="#C0_0_7bd86e9c7c" x="221.784143" y="121.6196" style="fill: #ff0000; stroke: #ffffff; stroke-width: 0.715542"/>
    </g>
    <g clip-path="url(#p5f5cd25264)">
     <use xlink:href="#C0_0_7bd86e9c7c" x="243.892177" y="142.238249" style="fill: #ff0000; stroke: #ffffff; stroke-width: 0.715542"/>
    </g>
    <g clip-path="url(#p5f5cd25264)">
     <use xlink:href="#C0_0_7bd86e9c7c" x="201.495728" y="222.496678" style="fill: #ff0000; stroke: #ffffff; stroke-width: 0.715542"/>
    </g>
    <g clip-path="url(#p5f5cd25264)">
     <use xlink:href="#C0_0_7bd86e9c7c" x="296.002083" y="150.044112" style="fill: #00ff00; stroke: #ffffff; stroke-width: 0.715542"/>
    </g>
    <g clip-path="url(#p5f5cd25264)">
     <use xlink:href="#C0_0_7bd86e9c7c" x="304.344129" y="121.051671" style="fill: #00ff00; stroke: #ffffff; stroke-width: 0.715542"/>
    </g>
    <g clip-path="url(#p5f5cd25264)">
     <use xlink:href="#C0_0_7bd86e9c7c" x="262.195748" y="166.512318" style="fill: #00ff00; stroke: #ffffff; stroke-width: 0.715542"/>
    </g>
    <g clip-path="url(#p5f5cd25264)">
     <use xlink:href="#C0_0_7bd86e9c7c" x="228.943834" y="168.972248" style="fill: #00ff00; stroke: #ffffff; stroke-width: 0.715542"/>
    </g>
    <g clip-path="url(#p5f5cd25264)">
     <use xlink:href="#C0_0_7bd86e9c7c" x="250.543272" y="211.856864" style="fill: #00ff00; stroke: #ffffff; stroke-width: 0.715542"/>
    </g>
    <g clip-path="url(#p5f5cd25264)">
     <use xlink:href="#C0_0_7bd86e9c7c" x="306.463355" y="139.137812" style="fill: #00ff00; stroke: #ffffff; stroke-width: 0.715542"/>
    </g>
    <g clip-path="url(#p5f5cd25264)">
     <use xlink:href="#C0_0_7bd86e9c7c" x="303.410413" y="116.588016" style="fill: #00ff00; stroke: #ffffff; stroke-width: 0.715542"/>
    </g>
    <g clip-path="url(#p5f5cd25264)">
     <use xlink:href="#C0_0_7bd86e9c7c" x="285.944803" y="238.773595" style="fill: #00ff00; stroke: #ffffff; stroke-width: 0.715542"/>
    </g>
    <g clip-path="url(#p5f5cd25264)">
     <use xlink:href="#C0_0_7bd86e9c7c" x="291.871665" y="202.873437" style="fill: #00ff00; stroke: #ffffff; stroke-width: 0.715542"/>
    </g>
    <g clip-path="url(#p5f5cd25264)">
     <use xlink:href="#C0_0_7bd86e9c7c" x="277.6462" y="367.778462" style="fill: #00ff00; stroke: #ffffff; stroke-width: 0.715542"/>
    </g>
    <g clip-path="url(#p5f5cd25264)">
     <use xlink:href="#C0_0_7bd86e9c7c" x="209.920809" y="177.784948" style="fill: #4682b4; stroke: #ffffff; stroke-width: 0.715542"/>
    </g>
    <g clip-path="url(#p5f5cd25264)">
     <use xlink:href="#C0_0_7bd86e9c7c" x="248.866499" y="92.11752" style="fill: #4682b4; stroke: #ffffff; stroke-width: 0.715542"/>
    </g>
    <g clip-path="url(#p5f5cd25264)">
     <use xlink:href="#C0_0_7bd86e9c7c" x="218.908671" y="154.245024" style="fill: #4682b4; stroke: #ffffff; stroke-width: 0.715542"/>
    </g>
    <g clip-path="url(#p5f5cd25264)">
     <use xlink:href="#C0_0_7bd86e9c7c" x="292.152517" y="154.790486" style="fill: #4682b4; stroke: #ffffff; stroke-width: 0.715542"/>
    </g>
    <g clip-path="url(#p5f5cd25264)">
     <use xlink:href="#C0_0_7bd86e9c7c" x="247.119515" y="107.110231" style="fill: #4682b4; stroke: #ffffff; stroke-width: 0.715542"/>
    </g>
    <g clip-path="url(#p5f5cd25264)">
     <use xlink:href="#C0_0_7bd86e9c7c" x="282.167792" y="90.126411" style="fill: #4682b4; stroke: #ffffff; stroke-width: 0.715542"/>
    </g>
    <g clip-path="url(#p5f5cd25264)">
     <use xlink:href="#C0_0_7bd86e9c7c" x="226.351864" y="107.191083" style="fill: #4682b4; stroke: #ffffff; stroke-width: 0.715542"/>
    </g>
    <g clip-path="url(#p5f5cd25264)">
     <use xlink:href="#C0_0_7bd86e9c7c" x="227.648462" y="200.508336" style="fill: #4682b4; stroke: #ffffff; stroke-width: 0.715542"/>
    </g>
    <g clip-path="url(#p5f5cd25264)">
     <use xlink:href="#C0_0_7bd86e9c7c" x="226.932827" y="175.717124" style="fill: #4682b4; stroke: #ffffff; stroke-width: 0.715542"/>
    </g>
    <g clip-path="url(#p5f5cd25264)">
     <use xlink:href="#C0_0_7bd86e9c7c" x="228.281342" y="237.006447" style="fill: #4682b4; stroke: #ffffff; stroke-width: 0.715542"/>
    </g>
   </g>
   <g id="PathCollection_2"/>
   <g id="PathCollection_3"/>
   <g id="PathCollection_4"/>
   <g id="line2d_15">
    <path d="M 79.753846 352.910769 
L 388.8 51.84 
" clip-path="url(#p5f5cd25264)" style="fill: none; stroke-dasharray: 6.475,2.8; stroke-dashoffset: 0; stroke: #4c72b0; stroke-width: 1.75"/>
   </g>
   <g id="patch_3">
    <path d="M 54 378 
L 54 51.84 
" style="fill: none"/>
   </g>
   <g id="patch_4">
    <path d="M 388.8 378 
L 388.8 51.84 
" style="fill: none"/>
   </g>
   <g id="patch_5">
    <path d="M 54 378 
L 388.8 378 
" style="fill: none"/>
   </g>
   <g id="patch_6">
    <path d="M 54 51.84 
L 388.8 51.84 
" style="fill: none"/>
   </g>
   <g id="legend_1">
    <g id="patch_7">
     <path d="M 63.1 117.351875 
L 197.17875 117.351875 
Q 199.77875 117.351875 199.77875 114.751875 
L 199.77875 60.94 
Q 199.77875 58.34 197.17875 58.34 
L 63.1 58.34 
Q 60.5 58.34 60.5 60.94 
L 60.5 114.751875 
Q 60.5 117.351875 63.1 117.351875 
z
" style="fill: #ffffff; stroke: #cccccc; stroke-width: 0.3; stroke-linejoin: miter"/>
    </g>
    <g id="PathCollection_5">
     <defs>
      <path id="m3a5affcaa2" d="M 0 3.5 
C 0.928211 3.5 1.81853 3.131218 2.474874 2.474874 
C 3.131218 1.81853 3.5 0.928211 3.5 0 
C 3.5 -0.928211 3.131218 -1.81853 2.474874 -2.474874 
C 1.81853 -3.131218 0.928211 -3.5 0 -3.5 
C -0.928211 -3.5 -1.81853 -3.131218 -2.474874 -2.474874 
C -3.131218 -1.81853 -3.5 -0.928211 -3.5 0 
C -3.5 0.928211 -3.131218 1.81853 -2.474874 2.474874 
C -1.81853 3.131218 -0.928211 3.5 0 3.5 
z
" style="stroke: #ff0000; stroke-width: 0.3"/>
     </defs>
     <g>
      <use xlink:href="#m3a5affcaa2" x="78.7" y="69.432656" style="fill: #ff0000; stroke: #ff0000; stroke-width: 0.3"/>
     </g>
    </g>
    <g id="text_17">
     <!-- 25th Percentile -->
     <g style="fill: #262626" transform="translate(102.1 72.845156) scale(0.13 -0.13)">
      <defs>
       <path id="Arial-BoldMT-32" d="M 3238 816 
L 3238 0 
L 159 0 
Q 209 463 459 877 
Q 709 1291 1447 1975 
Q 2041 2528 2175 2725 
Q 2356 2997 2356 3263 
Q 2356 3556 2198 3714 
Q 2041 3872 1763 3872 
Q 1488 3872 1325 3706 
Q 1163 3541 1138 3156 
L 263 3244 
Q 341 3969 753 4284 
Q 1166 4600 1784 4600 
Q 2463 4600 2850 4234 
Q 3238 3869 3238 3325 
Q 3238 3016 3127 2736 
Q 3016 2456 2775 2150 
Q 2616 1947 2200 1565 
Q 1784 1184 1673 1059 
Q 1563 934 1494 816 
L 3238 816 
z
" transform="scale(0.015625)"/>
       <path id="Arial-BoldMT-35" d="M 284 1178 
L 1159 1269 
Q 1197 972 1381 798 
Q 1566 625 1806 625 
Q 2081 625 2272 848 
Q 2463 1072 2463 1522 
Q 2463 1944 2273 2155 
Q 2084 2366 1781 2366 
Q 1403 2366 1103 2031 
L 391 2134 
L 841 4519 
L 3163 4519 
L 3163 3697 
L 1506 3697 
L 1369 2919 
Q 1663 3066 1969 3066 
Q 2553 3066 2959 2641 
Q 3366 2216 3366 1538 
Q 3366 972 3038 528 
Q 2591 -78 1797 -78 
Q 1163 -78 763 262 
Q 363 603 284 1178 
z
" transform="scale(0.015625)"/>
       <path id="Arial-BoldMT-68" d="M 1334 4581 
L 1334 2897 
Q 1759 3394 2350 3394 
Q 2653 3394 2897 3281 
Q 3141 3169 3264 2994 
Q 3388 2819 3433 2606 
Q 3478 2394 3478 1947 
L 3478 0 
L 2600 0 
L 2600 1753 
Q 2600 2275 2550 2415 
Q 2500 2556 2373 2639 
Q 2247 2722 2056 2722 
Q 1838 2722 1666 2615 
Q 1494 2509 1414 2295 
Q 1334 2081 1334 1663 
L 1334 0 
L 456 0 
L 456 4581 
L 1334 4581 
z
" transform="scale(0.015625)"/>
       <path id="Arial-BoldMT-69" d="M 459 3769 
L 459 4581 
L 1338 4581 
L 1338 3769 
L 459 3769 
z
M 459 0 
L 459 3319 
L 1338 3319 
L 1338 0 
L 459 0 
z
" transform="scale(0.015625)"/>
      </defs>
      <use xlink:href="#Arial-BoldMT-32"/>
      <use xlink:href="#Arial-BoldMT-35" x="55.615234"/>
      <use xlink:href="#Arial-BoldMT-74" x="111.230469"/>
      <use xlink:href="#Arial-BoldMT-68" x="144.53125"/>
      <use xlink:href="#Arial-BoldMT-20" x="205.615234"/>
      <use xlink:href="#Arial-BoldMT-50" x="233.398438"/>
      <use xlink:href="#Arial-BoldMT-65" x="300.097656"/>
      <use xlink:href="#Arial-BoldMT-72" x="355.712891"/>
      <use xlink:href="#Arial-BoldMT-63" x="394.628906"/>
      <use xlink:href="#Arial-BoldMT-65" x="450.244141"/>
      <use xlink:href="#Arial-BoldMT-6e" x="505.859375"/>
      <use xlink:href="#Arial-BoldMT-74" x="566.943359"/>
      <use xlink:href="#Arial-BoldMT-69" x="600.244141"/>
      <use xlink:href="#Arial-BoldMT-6c" x="628.027344"/>
      <use xlink:href="#Arial-BoldMT-65" x="655.810547"/>
     </g>
    </g>
    <g id="PathCollection_6">
     <defs>
      <path id="m25be8145a6" d="M 0 3.5 
C 0.928211 3.5 1.81853 3.131218 2.474874 2.474874 
C 3.131218 1.81853 3.5 0.928211 3.5 0 
C 3.5 -0.928211 3.131218 -1.81853 2.474874 -2.474874 
C 1.81853 -3.131218 0.928211 -3.5 0 -3.5 
C -0.928211 -3.5 -1.81853 -3.131218 -2.474874 -2.474874 
C -3.131218 -1.81853 -3.5 -0.928211 -3.5 0 
C -3.5 0.928211 -3.131218 1.81853 -2.474874 2.474874 
C -1.81853 3.131218 -0.928211 3.5 0 3.5 
z
" style="stroke: #00ff00; stroke-width: 0.3"/>
     </defs>
     <g>
      <use xlink:href="#m25be8145a6" x="78.7" y="87.803281" style="fill: #00ff00; stroke: #00ff00; stroke-width: 0.3"/>
     </g>
    </g>
    <g id="text_18">
     <!-- 50th Percentile -->
     <g style="fill: #262626" transform="translate(102.1 91.215781) scale(0.13 -0.13)">
      <defs>
       <path id="Arial-BoldMT-30" d="M 1756 4600 
Q 2422 4600 2797 4125 
Q 3244 3563 3244 2259 
Q 3244 959 2794 391 
Q 2422 -78 1756 -78 
Q 1088 -78 678 436 
Q 269 950 269 2269 
Q 269 3563 719 4131 
Q 1091 4600 1756 4600 
z
M 1756 3872 
Q 1597 3872 1472 3770 
Q 1347 3669 1278 3406 
Q 1188 3066 1188 2259 
Q 1188 1453 1269 1151 
Q 1350 850 1473 750 
Q 1597 650 1756 650 
Q 1916 650 2041 751 
Q 2166 853 2234 1116 
Q 2325 1453 2325 2259 
Q 2325 3066 2244 3367 
Q 2163 3669 2039 3770 
Q 1916 3872 1756 3872 
z
" transform="scale(0.015625)"/>
      </defs>
      <use xlink:href="#Arial-BoldMT-35"/>
      <use xlink:href="#Arial-BoldMT-30" x="55.615234"/>
      <use xlink:href="#Arial-BoldMT-74" x="111.230469"/>
      <use xlink:href="#Arial-BoldMT-68" x="144.53125"/>
      <use xlink:href="#Arial-BoldMT-20" x="205.615234"/>
      <use xlink:href="#Arial-BoldMT-50" x="233.398438"/>
      <use xlink:href="#Arial-BoldMT-65" x="300.097656"/>
      <use xlink:href="#Arial-BoldMT-72" x="355.712891"/>
      <use xlink:href="#Arial-BoldMT-63" x="394.628906"/>
      <use xlink:href="#Arial-BoldMT-65" x="450.244141"/>
      <use xlink:href="#Arial-BoldMT-6e" x="505.859375"/>
      <use xlink:href="#Arial-BoldMT-74" x="566.943359"/>
      <use xlink:href="#Arial-BoldMT-69" x="600.244141"/>
      <use xlink:href="#Arial-BoldMT-6c" x="628.027344"/>
      <use xlink:href="#Arial-BoldMT-65" x="655.810547"/>
     </g>
    </g>
    <g id="PathCollection_7">
     <defs>
      <path id="m1455cc61d1" d="M 0 3.5 
C 0.928211 3.5 1.81853 3.131218 2.474874 2.474874 
C 3.131218 1.81853 3.5 0.928211 3.5 0 
C 3.5 -0.928211 3.131218 -1.81853 2.474874 -2.474874 
C 1.81853 -3.131218 0.928211 -3.5 0 -3.5 
C -0.928211 -3.5 -1.81853 -3.131218 -2.474874 -2.474874 
C -3.131218 -1.81853 -3.5 -0.928211 -3.5 0 
C -3.5 0.928211 -3.131218 1.81853 -2.474874 2.474874 
C -1.81853 3.131218 -0.928211 3.5 0 3.5 
z
" style="stroke: #4682b4; stroke-width: 0.3"/>
     </defs>
     <g>
      <use xlink:href="#m1455cc61d1" x="78.7" y="106.173906" style="fill: #4682b4; stroke: #4682b4; stroke-width: 0.3"/>
     </g>
    </g>
    <g id="text_19">
     <!-- 75th Percentile -->
     <g style="fill: #262626" transform="translate(102.1 109.586406) scale(0.13 -0.13)">
      <defs>
       <path id="Arial-BoldMT-37" d="M 272 3703 
L 272 4519 
L 3275 4519 
L 3275 3881 
Q 2903 3516 2518 2831 
Q 2134 2147 1932 1376 
Q 1731 606 1734 0 
L 888 0 
Q 909 950 1279 1937 
Q 1650 2925 2269 3703 
L 272 3703 
z
" transform="scale(0.015625)"/>
      </defs>
      <use xlink:href="#Arial-BoldMT-37"/>
      <use xlink:href="#Arial-BoldMT-35" x="55.615234"/>
      <use xlink:href="#Arial-BoldMT-74" x="111.230469"/>
      <use xlink:href="#Arial-BoldMT-68" x="144.53125"/>
      <use xlink:href="#Arial-BoldMT-20" x="205.615234"/>
      <use xlink:href="#Arial-BoldMT-50" x="233.398438"/>
      <use xlink:href="#Arial-BoldMT-65" x="300.097656"/>
      <use xlink:href="#Arial-BoldMT-72" x="355.712891"/>
      <use xlink:href="#Arial-BoldMT-63" x="394.628906"/>
      <use xlink:href="#Arial-BoldMT-65" x="450.244141"/>
      <use xlink:href="#Arial-BoldMT-6e" x="505.859375"/>
      <use xlink:href="#Arial-BoldMT-74" x="566.943359"/>
      <use xlink:href="#Arial-BoldMT-69" x="600.244141"/>
      <use xlink:href="#Arial-BoldMT-6c" x="628.027344"/>
      <use xlink:href="#Arial-BoldMT-65" x="655.810547"/>
     </g>
    </g>
   </g>
  </g>
 </g>
 <defs>
  <clipPath id="p5f5cd25264">
   <rect x="54" y="51.84" width="334.8" height="326.16"/>
  </clipPath>
 </defs>
</svg>
